<svg id="Layer_1" data-name="Layer 1" xmlns="http://www.w3.org/2000/svg" viewBox="0 0 511.83 592.06"><defs><style>.cls-1{fill:#0aefa1;}</style></defs><title>Untitled-3</title><path class="cls-1" d="M597,274.87h0a18.22,18.22,0,0,0,2.25-8.54c0-20.7-38.11-37.47-85.13-37.47S429,245.63,429,266.33a18.1,18.1,0,0,0,2.25,8.54h0l-173,28.92v26.13H770.06V303.79Zm-82.9,11.05c-24.59,0-44.52-8.77-44.52-19.59s19.93-19.6,44.52-19.6,44.52,8.77,44.52,19.6S538.73,285.92,514.14,285.92Z" transform="translate(-258.23 -228.86)"/><rect class="cls-1" y="74.94" width="34.08" height="517.12"/><rect class="cls-1" x="91.93" y="174.34" width="278.85" height="33.33"/><rect class="cls-1" x="394.62" y="174.34" width="25.68" height="33.33"/><rect class="cls-1" x="91.93" y="281.01" width="159.21" height="33.33"/><rect class="cls-1" x="91.93" y="387.67" width="159.21" height="33.33"/></svg>